<svg width="258" height="80" viewBox="0 0 258 80" fill="none" xmlns="http://www.w3.org/2000/svg">
<g clip-path="url(#clip0_110_2)">
<path d="M109.931 62.0979H112.394V70.3247C112.191 70.3915 111.899 70.4675 111.517 70.5527C111.136 70.6372 110.696 70.7217 110.197 70.8082C109.698 70.8946 109.151 70.9634 108.56 71.0244C107.968 71.0853 107.367 71.1128 106.757 71.1128C105.603 71.1271 104.457 70.9203 103.381 70.5035C102.389 70.115 101.495 69.5108 100.765 68.7348C100.008 67.9071 99.4326 66.9295 99.077 65.8654C98.6619 64.6049 98.4626 63.2833 98.4874 61.9564C98.4628 60.6156 98.6908 59.2822 99.1595 58.0258C99.5644 56.9528 100.182 55.9727 100.976 55.1446C101.733 54.3723 102.646 53.7694 103.654 53.3758C104.701 52.9655 105.817 52.7588 106.942 52.7666C107.652 52.7605 108.361 52.8117 109.063 52.9199C109.6 53.0019 110.13 53.1207 110.651 53.2756C111.021 53.3842 111.382 53.5202 111.732 53.6824C111.928 53.7736 112.119 53.8753 112.304 53.9871L111.517 56.0447C110.912 55.6756 110.252 55.405 109.562 55.2429C108.749 55.0321 107.913 54.9257 107.074 54.9265C106.232 54.9155 105.398 55.0802 104.623 55.4099C103.897 55.724 103.254 56.2024 102.744 56.8073C102.202 57.4625 101.792 58.2167 101.538 59.0281C101.239 59.9763 101.094 60.9662 101.107 61.9603C101.096 62.9292 101.22 63.8948 101.475 64.8297C101.693 65.6383 102.073 66.394 102.593 67.0505C103.09 67.6665 103.725 68.1572 104.446 68.4832C105.267 68.8388 106.154 69.0119 107.048 68.9903C107.656 68.9972 108.263 68.9591 108.864 68.8763C109.228 68.8278 109.589 68.7556 109.943 68.6601L109.931 62.0979Z" fill="#0A6644"/>
<path d="M126.488 64.1557C126.501 65.123 126.346 66.0853 126.03 66.9995C125.75 67.8044 125.315 68.5464 124.748 69.1829C124.202 69.7887 123.532 70.2693 122.783 70.5921C121.19 71.2505 119.4 71.2505 117.807 70.5921C117.058 70.2696 116.387 69.7889 115.842 69.1829C115.275 68.5464 114.84 67.8044 114.56 66.9995C113.951 65.1572 113.951 63.1679 114.56 61.3256C114.838 60.5157 115.273 59.7689 115.842 59.1284C116.387 58.5225 117.058 58.0418 117.807 57.7193C119.4 57.0609 121.19 57.0609 122.783 57.7193C123.532 58.042 124.202 58.5227 124.748 59.1284C125.317 59.7689 125.752 60.5157 126.03 61.3256C126.344 62.2363 126.499 63.1943 126.488 64.1576M124.025 64.1576C124.091 62.9001 123.739 61.6562 123.023 60.6201C122.694 60.212 122.279 59.8828 121.806 59.6566C121.334 59.4304 120.817 59.313 120.293 59.313C119.769 59.313 119.252 59.4304 118.78 59.6566C118.307 59.8828 117.892 60.212 117.563 60.6201C116.908 61.6854 116.56 62.9117 116.56 64.1626C116.56 65.4134 116.908 66.6398 117.563 67.705C117.892 68.1131 118.307 68.4423 118.78 68.6685C119.252 68.8947 119.769 69.0121 120.293 69.0121C120.817 69.0121 121.334 68.8947 121.806 68.6685C122.279 68.4423 122.694 68.1131 123.023 67.705C123.739 66.669 124.091 65.425 124.025 64.1675" fill="#0A6644"/>
<path d="M129.71 55.1663C129.512 55.1709 129.314 55.1362 129.129 55.0644C128.944 54.9926 128.775 54.885 128.631 54.7477C128.346 54.4409 128.187 54.0375 128.188 53.6186C128.187 53.1998 128.346 52.7964 128.631 52.4896C128.926 52.2183 129.312 52.0677 129.712 52.0677C130.112 52.0677 130.498 52.2183 130.793 52.4896C131.079 52.796 131.238 53.1995 131.238 53.6186C131.238 54.0378 131.079 54.4413 130.793 54.7477C130.649 54.885 130.48 54.9926 130.295 55.0644C130.11 55.1362 129.912 55.1709 129.714 55.1663M130.907 70.7591H128.549V57.5542H130.907V70.7591Z" fill="#0A6644"/>
<path d="M137.965 57.2221C138.78 57.2013 139.592 57.3264 140.363 57.5915C140.955 57.7942 141.488 58.1422 141.911 58.6036C142.335 59.065 142.636 59.6251 142.788 60.2329C142.963 60.8999 143.049 61.5872 143.043 62.2769V70.5312L142.192 70.6707C141.827 70.7297 141.418 70.7847 140.96 70.8358C140.502 70.8869 140.007 70.9341 139.474 70.9753C138.942 71.0166 138.413 71.0402 137.886 71.0402C137.194 71.0459 136.504 70.9693 135.831 70.8122C135.246 70.6785 134.694 70.4321 134.203 70.087C133.741 69.7506 133.374 69.3003 133.138 68.7801C132.867 68.1612 132.737 67.49 132.757 66.8148C132.739 66.1603 132.893 65.5126 133.203 64.9359C133.492 64.4185 133.906 63.9819 134.408 63.6663C134.952 63.3297 135.55 63.0897 136.177 62.9569C136.877 62.8016 137.593 62.7251 138.311 62.7289C138.548 62.7289 138.793 62.7413 139.046 62.7662C139.301 62.7898 139.541 62.8252 139.771 62.8664C140.001 62.9077 140.198 62.947 140.361 62.9804L140.716 63.0571V62.3967C140.716 62.008 140.673 61.6205 140.589 61.2411C140.51 60.874 140.355 60.5276 140.133 60.2251C139.896 59.9161 139.586 59.6714 139.231 59.5136C138.76 59.3187 138.254 59.2275 137.745 59.2463C137.06 59.2389 136.376 59.2942 135.701 59.4114C135.255 59.4847 134.817 59.5998 134.392 59.7554L134.113 57.79C134.605 57.604 135.116 57.4722 135.636 57.397C136.399 57.2654 137.173 57.1997 137.947 57.2005M138.144 69.0336C138.702 69.0336 139.197 69.0211 139.63 68.9963C139.993 68.9806 140.353 68.9339 140.709 68.8567V64.9261C140.445 64.8156 140.167 64.7429 139.883 64.7099C139.427 64.6459 138.968 64.6163 138.507 64.6215C138.129 64.6231 137.752 64.6487 137.377 64.6981C136.998 64.7434 136.629 64.8503 136.285 65.0145C135.963 65.1694 135.681 65.3951 135.459 65.6749C135.227 65.9948 135.11 66.3844 135.129 66.7794C135.092 67.1202 135.148 67.4648 135.291 67.7763C135.435 68.0878 135.66 68.3546 135.943 68.5482C136.62 68.9107 137.384 69.0819 138.152 69.0434M141.402 52.5348L137.821 56.0134L136.629 54.9462L139.877 51.0372L141.402 52.5348Z" fill="#0A6644"/>
<path d="M148.754 69.0552C149.489 69.1001 150.225 68.9701 150.9 68.6759C151.122 68.5617 151.305 68.386 151.429 68.1698C151.553 67.9536 151.611 67.7062 151.598 67.4574C151.607 67.1892 151.548 66.923 151.429 66.6828C151.309 66.4427 151.131 66.2361 150.912 66.0817C150.206 65.6137 149.447 65.2298 148.652 64.9379C148.145 64.7348 147.658 64.5278 147.192 64.3168C146.756 64.124 146.35 63.8713 145.985 63.5661C145.647 63.2779 145.371 62.9242 145.173 62.5264C144.858 61.8019 144.784 60.9955 144.961 60.2255C145.137 59.4556 145.556 58.7625 146.156 58.2479C147.183 57.5107 148.431 57.1479 149.693 57.2201C150.067 57.2204 150.44 57.2414 150.812 57.283C151.185 57.3262 151.531 57.3773 151.851 57.4363C152.172 57.4952 152.457 57.5601 152.702 57.6328C152.948 57.7055 153.139 57.7605 153.272 57.8097L152.842 59.8398C152.46 59.6587 152.06 59.5184 151.649 59.4212C151.009 59.2663 150.352 59.1937 149.693 59.205C149.094 59.1907 148.501 59.3258 147.968 59.5981C147.738 59.7089 147.546 59.8847 147.415 60.1038C147.284 60.3228 147.22 60.5754 147.231 60.8304C147.226 61.0939 147.282 61.355 147.396 61.5929C147.519 61.8246 147.692 62.026 147.903 62.1825C148.166 62.3806 148.452 62.5468 148.754 62.6778C149.092 62.8297 149.498 62.9902 149.972 63.1592C150.597 63.3964 151.156 63.629 151.649 63.8569C152.104 64.0625 152.527 64.3318 152.907 64.6568C153.252 64.9608 153.526 65.3381 153.707 65.7613C153.906 66.2664 154.001 66.8066 153.986 67.3493C154.016 67.8886 153.907 68.4268 153.669 68.9118C153.432 69.3968 153.073 69.8124 152.628 70.1184C151.46 70.8135 150.11 71.1409 148.754 71.0578C147.828 71.0868 146.902 70.9882 146.003 70.765C145.347 70.5698 144.899 70.4217 144.656 70.3209L145.089 68.2887C145.36 68.3909 145.792 68.5436 146.384 68.7466C147.149 68.9731 147.945 69.0759 148.742 69.0513" fill="#0A6644"/>
<path d="M248.931 29.1299C250.702 28.1066 252.178 26.6419 253.215 24.8784C254.251 23.1149 254.813 21.1129 254.846 19.0675C254.846 13.1244 250.184 9.10333 243.779 9.10333H229.58V44.3591C232.036 44.5159 234.5 44.5159 236.956 44.3591V33.7071C238.799 33.3223 240.617 32.8295 242.402 32.2311C244.77 36.1374 246.89 40.1887 248.75 44.361C251.522 44.5177 254.301 44.5177 257.073 44.361C254.679 39.12 251.959 34.0337 248.931 29.1318M236.956 16.4968H242.512C246.049 16.4968 247.529 17.509 247.26 20.0344C246.881 23.5857 241.183 25.6198 236.954 26.6143L236.956 16.4968Z" fill="#0A6644"/>
<path d="M213.698 8.95788C211.127 8.75642 208.544 8.76365 205.975 8.9795L192.758 44.3551C195.413 44.5368 198.077 44.5296 200.731 44.3335L202.718 38.9053C207.455 37.6798 212.426 37.6758 217.165 38.8935L219.189 44.3708C221.829 44.5161 224.475 44.5069 227.113 44.3433L213.698 8.95788ZM205.458 31.4076L209.907 19.2483L214.4 31.4017C211.431 31.041 208.429 31.041 205.46 31.4017" fill="#0A6644"/>
<path d="M190.564 44.3571L190.464 9.02668C187.977 8.86987 185.482 8.87709 182.996 9.0483L183.053 28.4793C178.8 21.3672 173.566 14.8895 167.507 9.23697V9.09743C165.037 8.93673 162.559 8.94395 160.09 9.11905L160.19 44.4495C162.658 44.6761 165.141 44.6688 167.607 44.4278L167.529 19.7632C174.206 26.9244 179.482 35.2737 183.084 44.3787C185.572 44.5179 188.065 44.5107 190.552 44.3571" fill="#0A6644"/>
<path d="M131.338 44.3374V9.09741H154.8C155.051 11.5568 155.051 14.0354 154.8 16.4948H138.726V22.3456H152.31C152.498 24.6392 152.498 26.9443 152.31 29.2379H138.726V36.938H155.873C156.124 39.3974 156.124 41.8761 155.873 44.3355L131.338 44.3374Z" fill="#0A6644"/>
<path d="M115.182 44.817C121.544 44.817 127.483 41.6843 127.483 34.6229C127.483 27.8878 122.992 26.0168 118.036 23.5385C115.603 22.322 108.728 19.7494 108.728 17.6426C108.728 15.9131 110.739 15.4926 113.264 15.4926C116.333 15.5233 119.372 16.0927 122.244 17.1749C123.491 15.3421 124.395 13.2976 124.911 11.1414C120.732 9.35672 116.217 8.49529 111.674 8.61592C105.362 8.61592 100.963 11.7034 100.963 17.9236C100.963 24.8022 109.147 27.6048 112.655 29.1947C116.631 31.0185 119.858 32.0464 119.858 34.9943C119.858 37.5198 116.21 37.4726 114.479 37.4726C110.11 37.3825 105.803 36.4287 101.804 34.6661C100.563 36.6069 99.5729 38.6969 98.8564 40.8864C103.85 43.6277 109.486 44.9848 115.18 44.817" fill="#0A6644"/>
<path d="M0 40.7547C0.212648 43.6458 0.719703 46.5077 1.51329 49.2959C4.00326 50.5404 6.27354 52.1827 8.23466 54.1581C12.6771 58.5877 15.3352 64.4964 15.7028 70.7591C17.985 72.6092 20.4529 74.2175 23.0669 75.5584V72.3235C23.0786 65.2925 20.8484 58.4408 16.7002 52.7638C12.5521 47.0868 6.70212 42.8801 0 40.7547Z" fill="#0A6644"/>
<path d="M1.66451 25.2877C0.95955 27.6514 0.46111 30.072 0.174805 32.522C2.18412 33.0312 4.1513 33.6941 6.05895 34.505C10.9169 36.5682 15.3275 39.5559 19.0457 43.3017C22.7796 47.0454 25.7528 51.4769 27.8012 56.3514C29.9294 61.4061 31.0201 66.837 31.0086 72.3215V78.6557C33.4139 79.322 35.8737 79.7732 38.3588 80.0039V72.3195C38.3753 61.5077 34.7707 51.0018 28.12 42.4775C21.4693 33.9532 12.1556 27.9015 1.66451 25.2877Z" fill="#0A6644"/>
<path d="M48.6594 47.4898C45.4757 39.9173 40.8546 33.0337 35.0516 27.2196C29.275 21.4013 22.4217 16.7622 14.8737 13.5606C12.9008 12.7215 10.8864 11.9836 8.83828 11.3497C7.25982 13.3816 5.86859 15.5523 4.68164 17.8352C16.6442 21.0787 27.2044 28.1744 34.7279 38.0242C42.2515 47.8741 46.319 59.929 46.3011 72.3235V80.0079C48.787 79.7776 51.2474 79.3264 53.6533 78.6596V72.3235C53.6695 63.7946 51.9713 55.3494 48.6594 47.4898Z" fill="#0A6644"/>
<path d="M45.8589 16.3593C39.045 9.49421 31.0207 3.94793 22.1906 0C19.6004 1.4084 17.1634 3.082 14.9189 4.99386C28.6356 10.1152 40.4574 19.3097 48.7979 31.3434C57.1384 43.3771 61.5985 57.6741 61.5794 72.3156V75.5584C64.1827 74.2231 66.6412 72.6228 68.9159 70.7827C68.5541 50.3431 60.2905 30.838 45.8589 16.3593Z" fill="#0A6644"/>
<path d="M76.4193 54.1581C78.3804 52.1827 80.6507 50.5404 83.1406 49.2959C83.9333 46.5075 84.4404 43.6457 84.6539 40.7547C77.9487 42.877 72.0951 47.0825 67.9439 52.7598C63.7927 58.4372 61.5604 65.2904 61.5713 72.3235V75.5643C64.1996 74.2165 66.6802 72.5981 68.9727 70.7355C69.3386 64.4879 71.9848 58.5919 76.4094 54.166" fill="#36D75E"/>
<path d="M53.6531 72.3156C53.6444 64.2605 56.0051 56.3807 60.4414 49.6573C64.8777 42.9338 71.1936 37.6637 78.6027 34.503C80.5095 33.6917 82.476 33.0287 84.4849 32.52C84.1996 30.07 83.7018 27.6495 82.9971 25.2857C72.5061 27.8994 63.1925 33.9507 56.5415 42.4746C49.8905 50.9985 46.2853 61.504 46.3008 72.3156V80C48.7867 79.7694 51.2471 79.3182 53.6531 78.6518V72.3156Z" fill="#36D75E"/>
<path d="M38.3591 72.3235C38.3398 59.9291 42.4057 47.8738 49.9278 38.023C57.4498 28.1721 68.0088 21.0748 79.9707 17.8293C78.7838 15.5464 77.3926 13.3757 75.8141 11.3438C62.8128 15.391 51.4488 23.4945 43.3863 34.4676C35.3237 45.4407 30.9862 58.7069 31.0089 72.3235V78.6518C33.4143 79.3178 35.874 79.769 38.3591 80V72.3235Z" fill="#36D75E"/>
<path d="M23.0749 72.3156C23.0564 57.6732 27.5176 43.3755 35.8596 31.3417C44.2016 19.3079 56.0251 10.1139 69.7432 4.99386C67.4991 3.08148 65.0621 1.40784 62.4715 0C48.7762 6.15229 37.1107 16.0689 28.8335 28.5948C20.5564 41.1207 16.0082 55.7404 15.7188 70.7512C18.0001 72.6007 20.4673 74.2084 23.0807 75.5486L23.0749 72.3156Z" fill="#36D75E"/>
</g>
<defs>
<clipPath id="clip0_110_2">
<rect width="258" height="80" fill="white"/>
</clipPath>
</defs>
</svg>
